<svg width="800" height="291" viewBox="0 0 800 291" fill="none" xmlns="http://www.w3.org/2000/svg">
<path d="M27.293 130V37.84H45.853L79.261 77.648L112.541 37.84H131.229V130H114.205V62.416L79.261 104.016L44.189 62.544V130H27.293Z" fill="black"/>
<path d="M154.424 130V55.632C154.424 52.3893 155.235 49.4453 156.856 46.8C158.477 44.0693 160.611 41.8933 163.256 40.272C165.987 38.6507 168.973 37.84 172.216 37.84H228.664C231.907 37.84 234.893 38.6507 237.624 40.272C240.355 41.8933 242.531 44.0693 244.152 46.8C245.773 49.4453 246.584 52.3893 246.584 55.632V130H229.56V99.024H171.32V130H154.424ZM171.32 82.128H229.56V56.4C229.56 55.9733 229.389 55.632 229.048 55.376C228.707 55.0347 228.323 54.864 227.896 54.864H172.856C172.429 54.864 172.045 55.0347 171.704 55.376C171.448 55.632 171.32 55.9733 171.32 56.4V82.128Z" fill="black"/>
<path d="M269.359 130V37.84H286.255V75.344H346.671V37.84H363.567V130H346.671V92.496H286.255V130H269.359Z" fill="black"/>
<path d="M393.689 130V37.84H410.457V130H393.689Z" fill="black"/>
<path d="M440.293 130V37.84H458.853L492.261 77.648L525.541 37.84H544.229V130H527.205V62.416L492.261 104.016L457.189 62.544V130H440.293Z" fill="black"/>
<path d="M27.802 260V167.84H98.458C101.701 167.84 104.645 168.651 107.29 170.272C110.021 171.893 112.197 174.069 113.818 176.8C115.439 179.445 116.25 182.389 116.25 185.632V203.68C116.25 204.789 116.165 205.856 115.994 206.88C115.823 207.904 115.525 208.885 115.098 209.824C116.549 211.787 117.701 213.835 118.554 215.968C119.493 218.101 119.962 220.235 119.962 222.368V242.208C119.962 245.451 119.151 248.437 117.53 251.168C115.909 253.813 113.733 255.947 111.002 257.568C108.271 259.189 105.285 260 102.042 260H27.802ZM46.234 242.976H101.274C101.701 242.976 102.085 242.848 102.426 242.592C102.767 242.251 102.938 241.867 102.938 241.44V223.136C102.938 222.709 102.767 222.368 102.426 222.112C102.085 221.771 101.701 221.6 101.274 221.6H46.234C45.8073 221.6 45.4233 221.771 45.082 222.112C44.826 222.368 44.698 222.709 44.698 223.136V241.44C44.698 241.867 44.826 242.251 45.082 242.592C45.4233 242.848 45.8073 242.976 46.234 242.976ZM46.234 204.576H97.69C98.1167 204.576 98.458 204.448 98.714 204.192C98.97 203.851 99.098 203.467 99.098 203.04V186.4C99.098 185.973 98.97 185.632 98.714 185.376C98.458 185.035 98.1167 184.864 97.69 184.864H46.234C45.8073 184.864 45.4233 185.035 45.082 185.376C44.826 185.632 44.698 185.973 44.698 186.4V203.04C44.698 203.467 44.826 203.851 45.082 204.192C45.4233 204.448 45.8073 204.576 46.234 204.576Z" fill="black"/>
<path d="M135.421 260V167.712H152.317V242.976H227.581V260H135.421Z" fill="black"/>
<path d="M254.704 260C251.461 260 248.475 259.189 245.744 257.568C243.099 255.947 240.965 253.813 239.344 251.168C237.723 248.437 236.912 245.451 236.912 242.208V185.632C236.912 182.389 237.723 179.445 239.344 176.8C240.965 174.069 243.099 171.893 245.744 170.272C248.475 168.651 251.461 167.84 254.704 167.84H311.28C314.523 167.84 317.467 168.651 320.112 170.272C322.843 171.893 325.019 174.069 326.64 176.8C328.261 179.445 329.072 182.389 329.072 185.632V242.208C329.072 245.451 328.261 248.437 326.64 251.168C325.019 253.813 322.843 255.947 320.112 257.568C317.467 259.189 314.523 260 311.28 260H254.704ZM255.344 242.976H310.384C310.811 242.976 311.195 242.848 311.536 242.592C311.877 242.251 312.048 241.867 312.048 241.44V186.4C312.048 185.973 311.877 185.632 311.536 185.376C311.195 185.035 310.811 184.864 310.384 184.864H255.344C254.917 184.864 254.533 185.035 254.192 185.376C253.936 185.632 253.808 185.973 253.808 186.4V241.44C253.808 241.867 253.936 242.251 254.192 242.592C254.533 242.848 254.917 242.976 255.344 242.976Z" fill="black"/>
<path d="M363.335 260C360.092 260 357.106 259.189 354.375 257.568C351.73 255.947 349.596 253.813 347.975 251.168C346.354 248.437 345.543 245.451 345.543 242.208V185.632C345.543 182.389 346.354 179.445 347.975 176.8C349.596 174.069 351.73 171.893 354.375 170.272C357.106 168.651 360.092 167.84 363.335 167.84H419.783C423.026 167.84 426.012 168.651 428.743 170.272C431.474 171.893 433.65 174.069 435.271 176.8C436.892 179.445 437.703 182.389 437.703 185.632V192.8H420.679V186.4C420.679 185.973 420.508 185.632 420.167 185.376C419.826 185.035 419.442 184.864 419.015 184.864H363.975C363.548 184.864 363.164 185.035 362.823 185.376C362.567 185.632 362.439 185.973 362.439 186.4V241.44C362.439 241.867 362.567 242.251 362.823 242.592C363.164 242.848 363.548 242.976 363.975 242.976H419.015C419.442 242.976 419.826 242.848 420.167 242.592C420.508 242.251 420.679 241.867 420.679 241.44V224.8H399.815V207.776H437.703V242.208C437.703 245.451 436.892 248.437 435.271 251.168C433.65 253.813 431.474 255.947 428.743 257.568C426.012 259.189 423.026 260 419.783 260H363.335Z" fill="black"/>
<path d="M470.701 260C467.458 260 464.472 259.189 461.741 257.568C459.096 255.947 456.962 253.813 455.341 251.168C453.72 248.437 452.909 245.451 452.909 242.208V235.168H469.805V241.44C469.805 241.867 469.933 242.251 470.189 242.592C470.53 242.848 470.914 242.976 471.341 242.976H526.509C526.936 242.976 527.277 242.848 527.533 242.592C527.874 242.251 528.045 241.867 528.045 241.44V223.904C528.045 223.477 527.874 223.136 527.533 222.88C527.277 222.624 526.936 222.496 526.509 222.496H470.701C467.458 222.496 464.472 221.685 461.741 220.064C459.096 218.443 456.962 216.309 455.341 213.664C453.72 210.933 452.909 207.904 452.909 204.576V185.632C452.909 182.389 453.72 179.445 455.341 176.8C456.962 174.069 459.096 171.893 461.741 170.272C464.472 168.651 467.458 167.84 470.701 167.84H527.277C530.52 167.84 533.464 168.651 536.109 170.272C538.84 171.893 541.016 174.069 542.637 176.8C544.258 179.445 545.069 182.389 545.069 185.632V192.672H528.045V186.4C528.045 185.973 527.874 185.632 527.533 185.376C527.277 185.035 526.936 184.864 526.509 184.864H471.341C470.914 184.864 470.53 185.035 470.189 185.376C469.933 185.632 469.805 185.973 469.805 186.4V203.936C469.805 204.363 469.933 204.704 470.189 204.96C470.53 205.216 470.914 205.344 471.341 205.344H527.277C530.52 205.344 533.464 206.155 536.109 207.776C538.84 209.397 541.016 211.573 542.637 214.304C544.258 216.949 545.069 219.936 545.069 223.264V242.208C545.069 245.451 544.258 248.437 542.637 251.168C541.016 253.813 538.84 255.947 536.109 257.568C533.464 259.189 530.52 260 527.277 260H470.701Z" fill="black"/>
<path d="M573.75 40H766.25L748.739 237.656L669.787 260L591.295 237.656L573.75 40ZM638.203 129.375L636.092 104.453L728.293 104.488L730.404 80.4594L609.589 80.425L615.997 153.864H699.645L696.675 185.269L670 192.611L642.926 185.2L641.173 165.861H617.255L620.301 204.106L670 217.389L719.308 204.141L726.114 129.375H638.203Z" fill="#1E72F0"/>
</svg>
